<svg width="840" height="365" viewBox="0 0 840 365" xmlns="http://www.w3.org/2000/svg" font-family="ui-monospace,SFMono-Regular,Menlo,Consolas,monospace">
<defs><linearGradient id="bg" x1="0" y1="0" x2="0" y2="1"><stop offset="0" stop-color="#14121c"/><stop offset="1" stop-color="#0a0910"/></linearGradient></defs>
<rect x="1" y="1" width="838" height="363" rx="16" fill="url(#bg)" stroke="#241f36" stroke-width="1"/>
<text x="34" y="46" font-size="13" font-weight="700" letter-spacing="4" fill="#6e6a86">WHEN I COMMIT</text>
<text x="34" y="68" font-size="12" fill="#8b8798">93 pushes · last 29 days · Asia/Kolkata</text>
<line x1="573.5" y1="88" x2="573.5" y2="313" stroke="#9d71fa" stroke-width="1" stroke-dasharray="2 4" opacity="0.5"/>
<text x="52" y="113.5" font-size="10" letter-spacing="1" fill="#8b8798" text-anchor="end">MON</text>
<rect x="64" y="96" width="27" height="27" rx="5" fill="#9d71fa" opacity="0.52"/>
<rect x="95" y="96" width="27" height="27" rx="5" fill="none" stroke="#241f36" stroke-width="1"/>
<rect x="126" y="96" width="27" height="27" rx="5" fill="none" stroke="#241f36" stroke-width="1"/>
<rect x="157" y="96" width="27" height="27" rx="5" fill="none" stroke="#241f36" stroke-width="1"/>
<rect x="188" y="96" width="27" height="27" rx="5" fill="none" stroke="#241f36" stroke-width="1"/>
<rect x="219" y="96" width="27" height="27" rx="5" fill="none" stroke="#241f36" stroke-width="1"/>
<rect x="250" y="96" width="27" height="27" rx="5" fill="none" stroke="#241f36" stroke-width="1"/>
<rect x="281" y="96" width="27" height="27" rx="5" fill="none" stroke="#241f36" stroke-width="1"/>
<rect x="312" y="96" width="27" height="27" rx="5" fill="none" stroke="#241f36" stroke-width="1"/>
<rect x="343" y="96" width="27" height="27" rx="5" fill="none" stroke="#241f36" stroke-width="1"/>
<rect x="374" y="96" width="27" height="27" rx="5" fill="none" stroke="#241f36" stroke-width="1"/>
<rect x="405" y="96" width="27" height="27" rx="5" fill="#9d71fa" opacity="0.40"/>
<rect x="436" y="96" width="27" height="27" rx="5" fill="#9d71fa" opacity="0.52"/>
<rect x="467" y="96" width="27" height="27" rx="5" fill="none" stroke="#241f36" stroke-width="1"/>
<rect x="498" y="96" width="27" height="27" rx="5" fill="#9d71fa" opacity="0.40"/>
<rect x="529" y="96" width="27" height="27" rx="5" fill="none" stroke="#241f36" stroke-width="1"/>
<rect x="560" y="96" width="27" height="27" rx="5" fill="#9d71fa" opacity="0.52"/>
<rect x="591" y="96" width="27" height="27" rx="5" fill="#9d71fa" opacity="0.40"/>
<rect x="622" y="96" width="27" height="27" rx="5" fill="#9d71fa" opacity="0.40"/>
<rect x="653" y="96" width="27" height="27" rx="5" fill="none" stroke="#241f36" stroke-width="1"/>
<rect x="684" y="96" width="27" height="27" rx="5" fill="#9d71fa" opacity="0.64"/>
<rect x="715" y="96" width="27" height="27" rx="5" fill="none" stroke="#241f36" stroke-width="1"/>
<rect x="746" y="96" width="27" height="27" rx="5" fill="#9d71fa" opacity="0.40"/>
<rect x="777" y="96" width="27" height="27" rx="5" fill="none" stroke="#241f36" stroke-width="1"/>
<text x="52" y="144.5" font-size="10" letter-spacing="1" fill="#8b8798" text-anchor="end">TUE</text>
<rect x="64" y="127" width="27" height="27" rx="5" fill="none" stroke="#241f36" stroke-width="1"/>
<rect x="95" y="127" width="27" height="27" rx="5" fill="none" stroke="#241f36" stroke-width="1"/>
<rect x="126" y="127" width="27" height="27" rx="5" fill="none" stroke="#241f36" stroke-width="1"/>
<rect x="157" y="127" width="27" height="27" rx="5" fill="none" stroke="#241f36" stroke-width="1"/>
<rect x="188" y="127" width="27" height="27" rx="5" fill="none" stroke="#241f36" stroke-width="1"/>
<rect x="219" y="127" width="27" height="27" rx="5" fill="none" stroke="#241f36" stroke-width="1"/>
<rect x="250" y="127" width="27" height="27" rx="5" fill="none" stroke="#241f36" stroke-width="1"/>
<rect x="281" y="127" width="27" height="27" rx="5" fill="#9d71fa" opacity="0.52"/>
<rect x="312" y="127" width="27" height="27" rx="5" fill="none" stroke="#241f36" stroke-width="1"/>
<rect x="343" y="127" width="27" height="27" rx="5" fill="none" stroke="#241f36" stroke-width="1"/>
<rect x="374" y="127" width="27" height="27" rx="5" fill="none" stroke="#241f36" stroke-width="1"/>
<rect x="405" y="127" width="27" height="27" rx="5" fill="none" stroke="#241f36" stroke-width="1"/>
<rect x="436" y="127" width="27" height="27" rx="5" fill="#9d71fa" opacity="0.64"/>
<rect x="467" y="127" width="27" height="27" rx="5" fill="#9d71fa" opacity="0.40"/>
<rect x="498" y="127" width="27" height="27" rx="5" fill="none" stroke="#241f36" stroke-width="1"/>
<rect x="529" y="127" width="27" height="27" rx="5" fill="none" stroke="#241f36" stroke-width="1"/>
<rect x="560" y="127" width="27" height="27" rx="5" fill="none" stroke="#241f36" stroke-width="1"/>
<rect x="591" y="127" width="27" height="27" rx="5" fill="#9d71fa" opacity="0.88"/>
<rect x="622" y="127" width="27" height="27" rx="5" fill="none" stroke="#241f36" stroke-width="1"/>
<rect x="653" y="127" width="27" height="27" rx="5" fill="none" stroke="#241f36" stroke-width="1"/>
<rect x="684" y="127" width="27" height="27" rx="5" fill="none" stroke="#241f36" stroke-width="1"/>
<rect x="715" y="127" width="27" height="27" rx="5" fill="none" stroke="#241f36" stroke-width="1"/>
<rect x="746" y="127" width="27" height="27" rx="5" fill="none" stroke="#241f36" stroke-width="1"/>
<rect x="777" y="127" width="27" height="27" rx="5" fill="none" stroke="#241f36" stroke-width="1"/>
<text x="52" y="175.5" font-size="10" letter-spacing="1" fill="#8b8798" text-anchor="end">WED</text>
<rect x="64" y="158" width="27" height="27" rx="5" fill="none" stroke="#241f36" stroke-width="1"/>
<rect x="95" y="158" width="27" height="27" rx="5" fill="none" stroke="#241f36" stroke-width="1"/>
<rect x="126" y="158" width="27" height="27" rx="5" fill="none" stroke="#241f36" stroke-width="1"/>
<rect x="157" y="158" width="27" height="27" rx="5" fill="none" stroke="#241f36" stroke-width="1"/>
<rect x="188" y="158" width="27" height="27" rx="5" fill="none" stroke="#241f36" stroke-width="1"/>
<rect x="219" y="158" width="27" height="27" rx="5" fill="none" stroke="#241f36" stroke-width="1"/>
<rect x="250" y="158" width="27" height="27" rx="5" fill="none" stroke="#241f36" stroke-width="1"/>
<rect x="281" y="158" width="27" height="27" rx="5" fill="none" stroke="#241f36" stroke-width="1"/>
<rect x="312" y="158" width="27" height="27" rx="5" fill="none" stroke="#241f36" stroke-width="1"/>
<rect x="343" y="158" width="27" height="27" rx="5" fill="none" stroke="#241f36" stroke-width="1"/>
<rect x="374" y="158" width="27" height="27" rx="5" fill="none" stroke="#241f36" stroke-width="1"/>
<rect x="405" y="158" width="27" height="27" rx="5" fill="#9d71fa" opacity="0.64"/>
<rect x="436" y="158" width="27" height="27" rx="5" fill="#9d71fa" opacity="0.40"/>
<rect x="467" y="158" width="27" height="27" rx="5" fill="#9d71fa" opacity="0.64"/>
<rect x="498" y="158" width="27" height="27" rx="5" fill="none" stroke="#241f36" stroke-width="1"/>
<rect x="529" y="158" width="27" height="27" rx="5" fill="none" stroke="#241f36" stroke-width="1"/>
<rect x="560" y="158" width="27" height="27" rx="5" fill="#9d71fa" opacity="0.40"/>
<rect x="591" y="158" width="27" height="27" rx="5" fill="none" stroke="#241f36" stroke-width="1"/>
<rect x="622" y="158" width="27" height="27" rx="5" fill="none" stroke="#241f36" stroke-width="1"/>
<rect x="653" y="158" width="27" height="27" rx="5" fill="none" stroke="#241f36" stroke-width="1"/>
<rect x="684" y="158" width="27" height="27" rx="5" fill="none" stroke="#241f36" stroke-width="1"/>
<rect x="715" y="158" width="27" height="27" rx="5" fill="#9d71fa" opacity="0.52"/>
<rect x="746" y="158" width="27" height="27" rx="5" fill="#9d71fa" opacity="0.40"/>
<rect x="777" y="158" width="27" height="27" rx="5" fill="none" stroke="#241f36" stroke-width="1"/>
<text x="52" y="206.5" font-size="10" letter-spacing="1" fill="#8b8798" text-anchor="end">THU</text>
<rect x="64" y="189" width="27" height="27" rx="5" fill="none" stroke="#241f36" stroke-width="1"/>
<rect x="95" y="189" width="27" height="27" rx="5" fill="none" stroke="#241f36" stroke-width="1"/>
<rect x="126" y="189" width="27" height="27" rx="5" fill="none" stroke="#241f36" stroke-width="1"/>
<rect x="157" y="189" width="27" height="27" rx="5" fill="#9d71fa" opacity="0.40"/>
<rect x="188" y="189" width="27" height="27" rx="5" fill="none" stroke="#241f36" stroke-width="1"/>
<rect x="219" y="189" width="27" height="27" rx="5" fill="none" stroke="#241f36" stroke-width="1"/>
<rect x="250" y="189" width="27" height="27" rx="5" fill="none" stroke="#241f36" stroke-width="1"/>
<rect x="281" y="189" width="27" height="27" rx="5" fill="none" stroke="#241f36" stroke-width="1"/>
<rect x="312" y="189" width="27" height="27" rx="5" fill="none" stroke="#241f36" stroke-width="1"/>
<rect x="343" y="189" width="27" height="27" rx="5" fill="#9d71fa" opacity="0.88"/>
<rect x="374" y="189" width="27" height="27" rx="5" fill="none" stroke="#241f36" stroke-width="1"/>
<rect x="405" y="189" width="27" height="27" rx="5" fill="#9d71fa" opacity="0.40"/>
<rect x="436" y="189" width="27" height="27" rx="5" fill="none" stroke="#241f36" stroke-width="1"/>
<rect x="467" y="189" width="27" height="27" rx="5" fill="#9d71fa" opacity="0.64"/>
<rect x="498" y="189" width="27" height="27" rx="5" fill="#9d71fa" opacity="0.40"/>
<rect x="529" y="189" width="27" height="27" rx="5" fill="#9d71fa" opacity="0.52"/>
<rect x="560" y="189" width="27" height="27" rx="5" fill="#9d71fa" opacity="1.00"/>
<rect x="591" y="189" width="27" height="27" rx="5" fill="none" stroke="#241f36" stroke-width="1"/>
<rect x="622" y="189" width="27" height="27" rx="5" fill="none" stroke="#241f36" stroke-width="1"/>
<rect x="653" y="189" width="27" height="27" rx="5" fill="none" stroke="#241f36" stroke-width="1"/>
<rect x="684" y="189" width="27" height="27" rx="5" fill="#9d71fa" opacity="0.40"/>
<rect x="715" y="189" width="27" height="27" rx="5" fill="#9d71fa" opacity="0.40"/>
<rect x="746" y="189" width="27" height="27" rx="5" fill="none" stroke="#241f36" stroke-width="1"/>
<rect x="777" y="189" width="27" height="27" rx="5" fill="none" stroke="#241f36" stroke-width="1"/>
<text x="52" y="237.5" font-size="10" letter-spacing="1" fill="#8b8798" text-anchor="end">FRI</text>
<rect x="64" y="220" width="27" height="27" rx="5" fill="none" stroke="#241f36" stroke-width="1"/>
<rect x="95" y="220" width="27" height="27" rx="5" fill="none" stroke="#241f36" stroke-width="1"/>
<rect x="126" y="220" width="27" height="27" rx="5" fill="none" stroke="#241f36" stroke-width="1"/>
<rect x="157" y="220" width="27" height="27" rx="5" fill="none" stroke="#241f36" stroke-width="1"/>
<rect x="188" y="220" width="27" height="27" rx="5" fill="none" stroke="#241f36" stroke-width="1"/>
<rect x="219" y="220" width="27" height="27" rx="5" fill="none" stroke="#241f36" stroke-width="1"/>
<rect x="250" y="220" width="27" height="27" rx="5" fill="none" stroke="#241f36" stroke-width="1"/>
<rect x="281" y="220" width="27" height="27" rx="5" fill="none" stroke="#241f36" stroke-width="1"/>
<rect x="312" y="220" width="27" height="27" rx="5" fill="none" stroke="#241f36" stroke-width="1"/>
<rect x="343" y="220" width="27" height="27" rx="5" fill="none" stroke="#241f36" stroke-width="1"/>
<rect x="374" y="220" width="27" height="27" rx="5" fill="none" stroke="#241f36" stroke-width="1"/>
<rect x="405" y="220" width="27" height="27" rx="5" fill="#9d71fa" opacity="0.64"/>
<rect x="436" y="220" width="27" height="27" rx="5" fill="none" stroke="#241f36" stroke-width="1"/>
<rect x="467" y="220" width="27" height="27" rx="5" fill="none" stroke="#241f36" stroke-width="1"/>
<rect x="498" y="220" width="27" height="27" rx="5" fill="none" stroke="#241f36" stroke-width="1"/>
<rect x="529" y="220" width="27" height="27" rx="5" fill="none" stroke="#241f36" stroke-width="1"/>
<rect x="560" y="220" width="27" height="27" rx="5" fill="#9d71fa" opacity="0.40"/>
<rect x="591" y="220" width="27" height="27" rx="5" fill="#9d71fa" opacity="0.64"/>
<rect x="622" y="220" width="27" height="27" rx="5" fill="none" stroke="#241f36" stroke-width="1"/>
<rect x="653" y="220" width="27" height="27" rx="5" fill="none" stroke="#241f36" stroke-width="1"/>
<rect x="684" y="220" width="27" height="27" rx="5" fill="#9d71fa" opacity="0.40"/>
<rect x="715" y="220" width="27" height="27" rx="5" fill="none" stroke="#241f36" stroke-width="1"/>
<rect x="746" y="220" width="27" height="27" rx="5" fill="none" stroke="#241f36" stroke-width="1"/>
<rect x="777" y="220" width="27" height="27" rx="5" fill="none" stroke="#241f36" stroke-width="1"/>
<text x="52" y="268.5" font-size="10" letter-spacing="1" fill="#8b8798" text-anchor="end">SAT</text>
<rect x="64" y="251" width="27" height="27" rx="5" fill="none" stroke="#241f36" stroke-width="1"/>
<rect x="95" y="251" width="27" height="27" rx="5" fill="none" stroke="#241f36" stroke-width="1"/>
<rect x="126" y="251" width="27" height="27" rx="5" fill="none" stroke="#241f36" stroke-width="1"/>
<rect x="157" y="251" width="27" height="27" rx="5" fill="none" stroke="#241f36" stroke-width="1"/>
<rect x="188" y="251" width="27" height="27" rx="5" fill="none" stroke="#241f36" stroke-width="1"/>
<rect x="219" y="251" width="27" height="27" rx="5" fill="none" stroke="#241f36" stroke-width="1"/>
<rect x="250" y="251" width="27" height="27" rx="5" fill="none" stroke="#241f36" stroke-width="1"/>
<rect x="281" y="251" width="27" height="27" rx="5" fill="none" stroke="#241f36" stroke-width="1"/>
<rect x="312" y="251" width="27" height="27" rx="5" fill="none" stroke="#241f36" stroke-width="1"/>
<rect x="343" y="251" width="27" height="27" rx="5" fill="none" stroke="#241f36" stroke-width="1"/>
<rect x="374" y="251" width="27" height="27" rx="5" fill="none" stroke="#241f36" stroke-width="1"/>
<rect x="405" y="251" width="27" height="27" rx="5" fill="none" stroke="#241f36" stroke-width="1"/>
<rect x="436" y="251" width="27" height="27" rx="5" fill="none" stroke="#241f36" stroke-width="1"/>
<rect x="467" y="251" width="27" height="27" rx="5" fill="none" stroke="#241f36" stroke-width="1"/>
<rect x="498" y="251" width="27" height="27" rx="5" fill="none" stroke="#241f36" stroke-width="1"/>
<rect x="529" y="251" width="27" height="27" rx="5" fill="none" stroke="#241f36" stroke-width="1"/>
<rect x="560" y="251" width="27" height="27" rx="5" fill="none" stroke="#241f36" stroke-width="1"/>
<rect x="591" y="251" width="27" height="27" rx="5" fill="none" stroke="#241f36" stroke-width="1"/>
<rect x="622" y="251" width="27" height="27" rx="5" fill="none" stroke="#241f36" stroke-width="1"/>
<rect x="653" y="251" width="27" height="27" rx="5" fill="none" stroke="#241f36" stroke-width="1"/>
<rect x="684" y="251" width="27" height="27" rx="5" fill="none" stroke="#241f36" stroke-width="1"/>
<rect x="715" y="251" width="27" height="27" rx="5" fill="#9d71fa" opacity="0.40"/>
<rect x="746" y="251" width="27" height="27" rx="5" fill="none" stroke="#241f36" stroke-width="1"/>
<rect x="777" y="251" width="27" height="27" rx="5" fill="none" stroke="#241f36" stroke-width="1"/>
<text x="52" y="299.5" font-size="10" letter-spacing="1" fill="#8b8798" text-anchor="end">SUN</text>
<rect x="64" y="282" width="27" height="27" rx="5" fill="#9d71fa" opacity="0.40"/>
<rect x="95" y="282" width="27" height="27" rx="5" fill="none" stroke="#241f36" stroke-width="1"/>
<rect x="126" y="282" width="27" height="27" rx="5" fill="#9d71fa" opacity="0.40"/>
<rect x="157" y="282" width="27" height="27" rx="5" fill="none" stroke="#241f36" stroke-width="1"/>
<rect x="188" y="282" width="27" height="27" rx="5" fill="none" stroke="#241f36" stroke-width="1"/>
<rect x="219" y="282" width="27" height="27" rx="5" fill="none" stroke="#241f36" stroke-width="1"/>
<rect x="250" y="282" width="27" height="27" rx="5" fill="none" stroke="#241f36" stroke-width="1"/>
<rect x="281" y="282" width="27" height="27" rx="5" fill="none" stroke="#241f36" stroke-width="1"/>
<rect x="312" y="282" width="27" height="27" rx="5" fill="#9d71fa" opacity="0.64"/>
<rect x="343" y="282" width="27" height="27" rx="5" fill="#9d71fa" opacity="0.52"/>
<rect x="374" y="282" width="27" height="27" rx="5" fill="#9d71fa" opacity="0.40"/>
<rect x="405" y="282" width="27" height="27" rx="5" fill="#9d71fa" opacity="0.52"/>
<rect x="436" y="282" width="27" height="27" rx="5" fill="#9d71fa" opacity="0.76"/>
<rect x="467" y="282" width="27" height="27" rx="5" fill="#9d71fa" opacity="0.64"/>
<rect x="498" y="282" width="27" height="27" rx="5" fill="#9d71fa" opacity="0.40"/>
<rect x="529" y="282" width="27" height="27" rx="5" fill="none" stroke="#241f36" stroke-width="1"/>
<rect x="560" y="282" width="27" height="27" rx="5" fill="#9d71fa" opacity="0.40"/>
<rect x="591" y="282" width="27" height="27" rx="5" fill="#9d71fa" opacity="0.40"/>
<rect x="622" y="282" width="27" height="27" rx="5" fill="#9d71fa" opacity="0.40"/>
<rect x="653" y="282" width="27" height="27" rx="5" fill="none" stroke="#241f36" stroke-width="1"/>
<rect x="684" y="282" width="27" height="27" rx="5" fill="none" stroke="#241f36" stroke-width="1"/>
<rect x="715" y="282" width="27" height="27" rx="5" fill="#9d71fa" opacity="0.76"/>
<rect x="746" y="282" width="27" height="27" rx="5" fill="#9d71fa" opacity="0.40"/>
<rect x="777" y="282" width="27" height="27" rx="5" fill="#9d71fa" opacity="0.40"/>
<text x="64" y="325" font-size="10" fill="#8b8798">12a</text>
<text x="250" y="325" font-size="10" fill="#8b8798">6a</text>
<text x="436" y="325" font-size="10" fill="#8b8798">12p</text>
<text x="622" y="325" font-size="10" fill="#8b8798">6p</text>
<text x="777" y="325" font-size="10" fill="#8b8798">11p</text>
<text x="34" y="345" font-size="12" fill="#8b8798">9% of my pushes land between 10pm and 3am.</text>
<text x="806" y="345" font-size="12" fill="#8b8798" text-anchor="end">busiest hour · 4pm</text>
</svg>